Deep Impact (1998) [BDRip720p][Nautilus-BT]

Join www.nautilus-bt.org


Link IMDb : http://www.imdb.com/title/tt0120647/

Unless a comet can be destroyed before colliding with Earth, only those allowed into shelters will survive. Which people will survive?







Titolo italiano : Deep Impact
Titolo originale : Deep Impact
Anno : 1998
Genere : catastrofico - drammatico
Paese : USA
Regia : Mimi Leder
Sceneggiatura : Bruce Joel Rubin, Michael Tolkin
Soggetto : Bruce Joel Rubin, Michael Tolkin
Scenografia : Leslie Dilley

Lingue : Italiano - Inglese
Sottotitoli : Italiano - Inglese
Sottotitoli per non udenti : Inglese
Cartelli : Italiano
Capitoli : presenti


General
Complete name                    : Deep Impact (1998) [BDRip720p Ita-Eng] by Pitt@Sk8].mkv
Format                           : Matroska
File size                        : 4.38 GiB
Duration                         : 2h 1mn
Overall bit rate                 : 5 169 Kbps
Encoded date                     : UTC 2011-03-12 15:17:03
Writing application              : mkvmerge v4.4.0 ('Die Wiederkehr') built on Oct 31 2010 21:52:48
Writing library                  : libebml v1.0.0 + libmatroska v1.0.0

Video
ID                               : 1
Format                           : AVC
Format/Info                      : Advanced Video Codec
Format profile                   : High@L4.1
Format settings, CABAC           : Yes
Format settings, ReFrames        : 3 frames
Format settings, GOP             : M=4, N=59
Codec ID                         : V_MPEG4/ISO/AVC
Duration                         : 2h 1mn
Bit rate mode                    : Variable
Bit rate                         : 4 069 Kbps
Maximum bit rate                 : 40.0 Mbps
Width                            : 1 280 pixels
Height                           : 544 pixels
Display aspect ratio             : 2.35:1
Frame rate                       : 23.976 fps
Color space                      : YUV
Chroma subsampling               : 4:2:0
Bit depth                        : 8 bits
Scan type                        : Progressive
Bits/(Pixel*Frame)               : 0.244
Stream size                      : 3.37 GiB (77%)
Title                            : BDRip720p by Pitt@Sk8
Writing library                  : x264 core 112 r1867 22bfd31
Encoding settings                : cabac=1 / ref=3 / deblock=1:0:0 / analyse=0x3:0x133 / me=hex / subme=7 / psy=1 / psy_rd=1.00:0.00 / mixed_ref=1 / me_range=16 / chroma_me=1 / trellis=1 / 8x8dct=1 / cqm=0 / deadzone=21,11 / fast_pskip=1 / chroma_qp_offset=-2 / threads=6 / sliced_threads=0 / slices=4 / nr=0 / decimate=1 / interlaced=0 / constrained_intra=0 / bframes=3 / b_pyramid=1 / b_adapt=1 / b_bias=0 / direct=1 / weightb=1 / open_gop=2 / weightp=2 / keyint=240 / keyint_min=23 / scenecut=40 / intra_refresh=0 / rc_lookahead=40 / rc=2pass / mbtree=1 / bitrate=4069 / ratetol=1.0 / qcomp=0.60 / qpmin=10 / qpmax=51 / qpstep=4 / cplxblur=20.0 / qblur=0.5 / vbv_maxrate=40000 / vbv_bufsize=40000 / nal_hrd=vbr / ip_ratio=1.40 / aq=1:1.00

Audio #1
ID                               : 2
Format                           : AC-3
Format/Info                      : Audio Coding 3
Mode extension                   : CM (complete main)
Codec ID                         : A_AC3
Duration                         : 2h 1mn
Bit rate mode                    : Constant
Bit rate                         : 640 Kbps
Channel(s)                       : 6 channels
Channel positions                : Front: L C R, Side: L R, LFE
Sampling rate                    : 48.0 KHz
Bit depth                        : 16 bits
Compression mode                 : Lossy
Stream size                      : 555 MiB (12%)
Title                            : Italiano AC3 5.1 640 kbps - Pitt@Sk8
Language                         : Italian

Audio #2
ID                               : 3
Format                           : AC-3
Format/Info                      : Audio Coding 3
Mode extension                   : CM (complete main)
Codec ID                         : A_AC3
Duration                         : 2h 1mn
Bit rate mode                    : Constant
Bit rate                         : 448 Kbps
Channel(s)                       : 6 channels
Channel positions                : Front: L C R, Side: L R, LFE
Sampling rate                    : 48.0 KHz
Bit depth                        : 16 bits
Compression mode                 : Lossy
Stream size                      : 388 MiB (9%)
Title                            : English AC3 5.1 448 kbps - Pitt@Sk8
Language                         : English

Text #1
ID                               : 4
Format                           : UTF-8
Codec ID                         : S_TEXT/UTF8
Codec ID/Info                    : UTF-8 Plain Text
Title                            : Cartelli SRT - Italiano
Language                         : Italian

Text #2
ID                               : 5
Format                           : VobSub
Muxing mode                      : zlib
Codec ID                         : S_VOBSUB
Codec ID/Info                    : The same subtitle format used on DVDs
Title                            : Cartelli - Italiano
Language                         : Italian

Text #3
ID                               : 6
Format                           : VobSub
Muxing mode                      : zlib
Codec ID                         : S_VOBSUB
Codec ID/Info                    : The same subtitle format used on DVDs
Title                            : Sottotitoli - Italiano
Language                         : Italian

Text #4
ID                               : 7
Format                           : VobSub
Muxing mode                      : zlib
Codec ID                         : S_VOBSUB
Codec ID/Info                    : The same subtitle format used on DVDs
Title                            : Subtitle - English
Language                         : English

Text #5
ID                               : 8
Format                           : VobSub
Muxing mode                      : zlib
Codec ID                         : S_VOBSUB
Codec ID/Info                    : The same subtitle format used on DVDs
Title                            : Subtitle - English [deaf]
Language                         : English

Menu
00:00:00.000                     : en:Deep Impact -01- Pitt@Sk8
00:02:37.616                     : en:Deep Impact -02- Pitt@Sk8
00:07:01.755                     : en:Deep Impact -03- Pitt@Sk8
00:10:53.945                     : en:Deep Impact -04- Pitt@Sk8
00:17:10.988                     : en:Deep Impact -05- Pitt@Sk8
00:20:37.862                     : en:Deep Impact -06- Pitt@Sk8
00:22:21.632                     : en:Deep Impact -07- Pitt@Sk8
00:25:28.026                     : en:Deep Impact -08- Pitt@Sk8
00:35:00.932                     : en:Deep Impact -09- Pitt@Sk8
00:39:11.432                     : en:Deep Impact -10- Pitt@Sk8
00:43:58.886                     : en:Deep Impact -11- Pitt@Sk8
00:51:45.936                     : en:Deep Impact -12- Pitt@Sk8
00:56:17.541                     : en:Deep Impact -13- Pitt@Sk8
01:00:15.779                     : en:Deep Impact -14- Pitt@Sk8
01:05:01.815                     : en:Deep Impact -15- Pitt@Sk8
01:09:42.220                     : en:Deep Impact -16- Pitt@Sk8
01:13:53.346                     : en:Deep Impact -17- Pitt@Sk8
01:18:10.603                     : en:Deep Impact -18- Pitt@Sk8
01:20:08.303                     : en:Deep Impact -19- Pitt@Sk8
01:22:52.467                     : en:Deep Impact -20- Pitt@Sk8
01:25:20.324                     : en:Deep Impact -21- Pitt@Sk8
01:27:46.845                     : en:Deep Impact -22- Pitt@Sk8
01:31:53.591                     : en:Deep Impact -23- Pitt@Sk8
01:34:23.074                     : en:Deep Impact -24- Pitt@Sk8
01:38:45.044                     : en:Deep Impact -25- Pitt@Sk8
01:40:55.424                     : en:Deep Impact -26- Pitt@Sk8
01:43:18.109                     : en:Deep Impact -27- Pitt@Sk8
01:46:15.119                     : en:Deep Impact -28- Pitt@Sk8
01:51:43.488                     : en:Deep Impact -29- Pitt@Sk8
01:53:23.839                     : en:Deep Impact -30- Pitt@Sk8

Join www.nautilus-bt.org
